<svg width="885" height="402" viewBox="0 0 885 402" fill="none" xmlns="http://www.w3.org/2000/svg">
<path d="M428.324 43.4398V72.5639H389.599H350.873V133.199V193.835H319.232H287.591V133.199V72.5639H246.087C218.882 72.5639 204.379 72.9 203.988 73.5378C203.66 74.0745 207.728 79.123 213.028 84.7578C235.971 109.153 240.686 118.42 240.591 138.929C240.471 164.945 224.612 185.94 200.227 192.361C195.372 193.64 182.708 193.835 104.627 193.835H14.624V162.323V130.812H85.3856C124.305 130.812 156.82 130.551 157.641 130.232C158.463 129.913 159.136 129.251 159.136 128.759C159.136 128.267 153.786 121.975 147.247 114.777C137.195 103.71 134.727 100.36 131.281 93.0939C126.27 82.531 124.771 76.2545 124.893 66.3571C125.181 43.1801 141.512 23.2353 166.001 16.1539C171.512 14.5602 180.056 14.4475 300.105 14.3835L428.324 14.3157V43.4398Z" fill="#E50911"/>
<path fill-rule="evenodd" clip-rule="evenodd" d="M555.862 16.4642C557.405 20.0241 609.672 190.994 609.672 192.481C609.672 193.661 605.02 193.823 577.5 193.608L545.328 193.357L541.32 180.944L537.312 168.53L506.995 168.278L476.678 168.027L473.224 179.259C471.324 185.437 469.554 191.244 469.291 192.164C468.846 193.714 466.425 193.835 435.753 193.835C404.717 193.835 402.724 193.732 403.173 192.164C406.14 181.797 455.036 18.5096 455.706 16.7268L456.613 14.3157H505.772H554.931L555.862 16.4642ZM493.281 118.16C493.051 117.504 496.062 106.546 499.973 93.8101C503.883 81.0738 507.319 70.6579 507.609 70.6617C508.591 70.6751 522.045 116.458 521.494 117.911C521.04 119.105 518.603 119.353 507.322 119.353C497.275 119.353 493.589 119.04 493.281 118.16Z" fill="#E50911"/>
<path fill-rule="evenodd" clip-rule="evenodd" d="M764.101 17.3943C784.202 24.3153 798.558 38.5517 803.847 56.8082C805.894 63.8744 806.157 79.483 804.355 86.8872C801.058 100.436 793.203 111.179 780.269 119.831C776.342 122.457 773.118 125.132 773.103 125.777C773.087 126.421 774.224 127.711 775.628 128.642C777.97 130.193 782.028 130.358 824.271 130.624L870.36 130.912V162.374V193.835H813.887C752.131 193.835 752.041 193.828 740.488 188.137C735.882 185.868 731.023 181.493 714.536 164.763C703.378 153.443 693.922 144.18 693.52 144.18C693.119 144.18 692.79 155.353 692.79 169.007V193.835H657.37H621.951V104.045V14.2546L689.248 14.5239L756.545 14.7932L764.101 17.3943ZM692.991 77.4032C692.842 71.9241 692.935 66.8746 693.198 66.1833C693.906 64.3194 731.24 64.3833 735.672 66.2559C740.05 68.1055 741.905 71.1783 741.905 76.5811C741.905 80.2545 741.376 81.726 739.15 84.246L736.396 87.3646H714.829H693.262L692.991 77.4032Z" fill="#E50911"/>
<path fill-rule="evenodd" clip-rule="evenodd" d="M616.636 208.641C641.848 213.086 661.108 229.604 666.789 251.655C668.651 258.881 668.65 273.911 666.787 281.245C663.501 294.18 655.262 305.251 642.575 313.778C638.283 316.662 636.122 318.715 636.314 319.723C637.03 323.482 639.521 323.671 688.776 323.685C731.701 323.698 736.238 323.553 736.238 322.169C736.238 321.326 732.348 316.492 727.592 311.426C711.954 294.764 707.443 287.642 704.06 274.269C699.516 256.306 703.835 239.556 716.544 225.849C723.018 218.868 729.753 214.639 740.714 210.674L748.989 207.68L809.674 207.396L870.36 207.112V236.759V266.406H825.967C794.206 266.406 781.575 266.706 781.575 267.46C781.575 268.041 786.746 274.159 793.067 281.057C806.668 295.901 809.128 299.156 813.253 307.754C817.172 315.925 818.824 325.551 818.118 336.11C816.48 360.653 799.887 380.695 776.612 386.242C767.715 388.363 624.339 388.33 615.422 386.205C602.087 383.027 598.712 380.6 576.142 357.948L555.362 337.093L555.111 362.397L554.859 387.7L519.691 387.449L484.523 387.199L484.279 298.395C484.145 249.552 484.239 209.054 484.486 208.397C485.212 206.473 605.604 206.696 616.636 208.641ZM556.307 281.207L556.04 269.987L555.775 258.767H575.669C597.812 258.767 600.923 259.394 603.47 264.374C606.573 270.44 604.548 277.435 598.905 280.143C596.105 281.486 592.652 281.684 575.958 281.465L556.307 281.207Z" fill="#E50911"/>
<path fill-rule="evenodd" clip-rule="evenodd" d="M413.847 207.945C414.793 208.552 423.519 236.487 463.331 366.341C466.415 376.4 468.939 385.317 468.939 386.155C468.939 387.517 465.589 387.677 436.872 387.677H404.806L400.744 375.024L396.683 362.372L366.28 362.12L335.879 361.868L331.884 374.772L327.889 387.677H295.516C277.712 387.677 262.924 387.318 262.656 386.877C262.388 386.438 263.606 381.39 265.365 375.658C267.123 369.926 279.04 330.219 291.847 287.42C304.653 244.62 315.575 209.063 316.117 208.403C316.884 207.468 327.667 207.206 364.92 207.217C391.221 207.226 413.238 207.552 413.847 207.945ZM353.956 312.479C352.001 313.151 353.239 307.41 359.545 286.539C363.347 273.955 366.727 263.956 367.055 264.317C367.88 265.224 381.098 308.945 381.098 310.768C381.098 312.025 379.161 312.241 367.875 312.241C360.602 312.241 354.339 312.348 353.956 312.479Z" fill="#E50911"/>
<path d="M87.5911 211.739C88.3202 214.234 91.4334 224.971 94.5097 235.602C97.586 246.232 100.358 254.934 100.671 254.939C100.982 254.944 103.459 246.891 106.173 237.043C108.887 227.196 111.843 216.561 112.741 213.41L114.374 207.68L150.967 207.43L187.558 207.18L188.823 210.295C189.518 212.008 192.968 222.756 196.49 234.179C200.011 245.601 203.142 254.945 203.446 254.944C203.751 254.942 206.714 245.596 210.031 234.175C213.348 222.754 216.621 212.013 217.303 210.306L218.544 207.203H251.757H284.971L284.571 209.829C284.35 211.273 272.295 251.879 257.78 300.064L231.392 387.673L201.121 387.675L170.851 387.677L161.109 354.972C155.751 336.985 151.033 321.645 150.624 320.886C150.122 319.954 149.241 321.66 147.912 326.138C146.829 329.786 142.178 345.017 137.575 359.985L129.208 387.199H99.0811H68.9547L41.8507 298.872C26.9434 250.292 14.7194 209.794 14.6854 208.874C14.6278 207.311 16.9362 207.203 50.4449 207.203H86.2659L87.5911 211.739Z" fill="#E50911"/>
</svg>
